<svg width="37" height="37" viewBox="0 0 37 37" fill="none" xmlns="http://www.w3.org/2000/svg">
<path d="M6.75597 0C3.01346 0 0 3.01346 0 6.75597V30.244C0 33.9865 3.01346 37 6.75597 37H19.4863V22.5353H15.6614V17.3276H19.4863V12.8783C19.4863 9.38275 21.7462 6.17322 26.9522 6.17322C29.06 6.17322 30.6187 6.37557 30.6187 6.37557L30.4961 11.2388C30.4961 11.2388 28.9064 11.2238 27.1718 11.2238C25.2945 11.2238 24.9935 12.0887 24.9935 13.5247V17.3276H30.6452L30.3989 22.5353H24.9935V37H30.244C33.9865 37 37 33.9866 37 30.2441V6.75601C37 3.0135 33.9865 3.7e-05 30.244 3.7e-05H6.75593L6.75597 0Z" fill="#333333"/>
</svg>
