<svg width="37" height="37" viewBox="0 0 37 37" fill="none" xmlns="http://www.w3.org/2000/svg">
<path d="M4.11111 0C3.02078 0 1.9751 0.433134 1.20412 1.20412C0.433134 1.9751 0 3.02078 0 4.11111V32.8889C0 33.9792 0.433134 35.0249 1.20412 35.7959C1.9751 36.5669 3.02078 37 4.11111 37H32.8889C33.9792 37 35.0249 36.5669 35.7959 35.7959C36.5669 35.0249 37 33.9792 37 32.8889V4.11111C37 3.02078 36.5669 1.9751 35.7959 1.20412C35.0249 0.433134 33.9792 0 32.8889 0H4.11111ZM5.13889 11.3056H8.22222C8.96222 11.3056 9.25 11.6344 9.53778 12.4772C11.0178 16.7939 13.505 20.5556 14.5328 20.5556C14.9233 20.5556 15.1083 20.3911 15.1083 19.425V14.9644C14.985 12.9089 13.8956 12.7239 13.8956 12.0044C13.8956 11.655 14.1833 11.3056 14.6767 11.3056H19.425C20.0828 11.3056 20.2883 11.655 20.2883 12.4156V18.4178C20.2883 19.055 20.5556 19.2811 20.7611 19.2811C21.1517 19.2811 21.4806 19.055 22.1794 18.3561C24.3583 15.91 25.9 12.1689 25.9 12.1689C26.1056 11.7167 26.455 11.3056 27.2156 11.3056H30.2372C31.1622 11.3056 31.3678 11.7783 31.1622 12.4156C30.7717 14.1833 27.0922 19.3839 27.0922 19.3839C26.7222 19.8978 26.64 20.1444 27.0922 20.7406C27.4006 21.1722 28.4694 22.0767 29.1683 22.9194C30.4839 24.3789 31.45 25.6122 31.7378 26.455C31.9844 27.3183 31.5528 27.75 30.6894 27.75H27.6472C26.4961 27.75 26.1672 26.825 24.1117 24.7694C22.3028 23.0428 21.5833 22.8167 21.09 22.8167C20.4733 22.8167 20.2883 22.9811 20.2883 23.865V26.5783C20.2883 27.3183 20.0622 27.75 18.13 27.75C14.9233 27.75 11.3878 25.7972 8.90056 22.2C5.13889 16.9378 4.11111 12.9706 4.11111 12.1689C4.11111 11.7167 4.27556 11.3056 5.13889 11.3056Z" fill="#333333"/>
</svg>
